<?xml version="1.0" encoding="utf-8"?>
<!-- Generator: Adobe Illustrator 19.0.0, SVG Export Plug-In . SVG Version: 6.00 Build 0)  -->
<svg version="1.1" id="VK" xmlns="http://www.w3.org/2000/svg" xmlns:xlink="http://www.w3.org/1999/xlink" x="0px" y="0px"
	 viewBox="0 0 45 45" style="enable-background:new 0 0 45 45;" xml:space="preserve">
<style type="text/css">
	.st0{clip-path:url(#XMLID_2_);fill:none;stroke:#000000;stroke-width:8;stroke-miterlimit:10;}
	.st1{clip-path:url(#XMLID_3_);}
    .st0:hover{
    stroke:#ccc;
    fill:#ccc;
    }
</style>
<g id="XMLID_28_">
	<defs>
		<path id="XMLID_33_" d="M22.5,45C34.9,45,45,34.9,45,22.5C45,10.1,34.9,0,22.5,0S0,10.1,0,22.5C0,34.9,10.1,45,22.5,45L22.5,45z
			 M22.5,45"/>
	</defs>
	<clipPath id="XMLID_2_">
		<use xlink:href="#XMLID_33_"  style="overflow:visible;"/>
	</clipPath>
	<path id="XMLID_30_" class="st0" d="M22.5,45C34.9,45,45,34.9,45,22.5S34.9,0,22.5,0S0,10.1,0,22.5S10.1,45,22.5,45L22.5,45z
		 M22.5,45"/>
</g>
<g id="XMLID_15_">
	<defs>
		<path id="XMLID_22_" d="M23.2,30.6c0,0,0.5-0.1,0.7-0.3c0.2-0.2,0.2-0.7,0.2-0.7s0-2,0.9-2.3c0.9-0.3,2.1,1.9,3.4,2.8
			c1,0.7,1.7,0.5,1.7,0.5l3.4,0c0,0,1.8-0.1,0.9-1.5c-0.1-0.1-0.5-1-2.5-2.9c-2.1-2-1.9-1.6,0.7-5c1.6-2.1,2.2-3.3,2-3.8
			c-0.2-0.5-1.3-0.4-1.3-0.4l-3.8,0c0,0-0.3,0-0.5,0.1c-0.2,0.1-0.3,0.4-0.3,0.4s-0.6,1.6-1.4,2.9c-1.7,2.9-2.4,3-2.7,2.8
			c-0.7-0.4-0.5-1.7-0.5-2.5c0-2.8,0.4-3.9-0.8-4.2c-0.4-0.1-0.7-0.2-1.8-0.2c-1.4,0-2.5,0-3.2,0.3c-0.4,0.2-0.8,0.7-0.6,0.7
			c0.3,0,0.8,0.2,1.1,0.6c0.4,0.5,0.4,1.7,0.4,1.7s0.2,3.3-0.5,3.7c-0.5,0.3-1.2-0.3-2.8-2.9c-0.8-1.3-1.4-2.8-1.4-2.8
			s-0.1-0.3-0.3-0.4C14,17,13.7,17,13.7,17L10,17c0,0-0.5,0-0.8,0.2c-0.2,0.2,0,0.6,0,0.6s2.9,6.6,6.1,9.9c3,3,6.3,2.8,6.3,2.8H23.2
			L23.2,30.6z M23.2,30.6"/>
	</defs>
	<clipPath id="XMLID_3_">
		<use xlink:href="#XMLID_22_"  style="overflow:visible;"/>
	</clipPath>
	<rect id="XMLID_21_" x="4.1" y="11.2" class="st1" width="35.8" height="24.5"/>
</g>
</svg>
