<?xml version="1.0" encoding="utf-8"?>
<!-- Generator: Adobe Illustrator 19.0.0, SVG Export Plug-In . SVG Version: 6.00 Build 0)  -->
<svg version="1.1" id="Слой_1" xmlns="http://www.w3.org/2000/svg" xmlns:xlink="http://www.w3.org/1999/xlink" x="0px" y="0px"
	 viewBox="0 0 45 45" style="enable-background:new 0 0 45 45;" xml:space="preserve">
<style type="text/css">
	.st0{clip-path:url(#XMLID_15_);fill:none;stroke:#000000;stroke-width:8;stroke-miterlimit:10;}
	.st1{clip-path:url(#XMLID_16_);}
</style>
<g id="XMLID_40_">
	<defs>
		<path id="XMLID_45_" d="M22.5,45C34.9,45,45,35,45,22.5S34.9,0,22.5,0C10.1,0,0,10.1,0,22.5S10.1,45,22.5,45L22.5,45z M22.5,45"/>
	</defs>
	<clipPath id="XMLID_15_">
		<use xlink:href="#XMLID_45_"  style="overflow:visible;"/>
	</clipPath>
	<path id="XMLID_42_" class="st0" d="M22.5,45C34.9,45,45,35,45,22.5S34.9,0,22.5,0C10.1,0,0,10.1,0,22.5S10.1,45,22.5,45L22.5,45z
		 M22.5,45"/>
</g>
<g id="XMLID_23_">
	<defs>
		<path id="XMLID_26_" d="M16.3,28.7l0-4.1l0.8,0l0.8,0l0-0.6l0-0.6l-2.2,0l-2.2,0v0.6v0.6l0.8,0l0.8,0l0,4.1c0,2.3,0,4.1,0,4.2
			c0,0,0.2,0,0.7,0l0.7,0L16.3,28.7L16.3,28.7z M29.2,28.4c0-0.1,0-1,0.1-1.2c0.1-0.3,0.3-0.5,0.6-0.5c0.3,0,0.4,0.1,0.6,0.3
			c0.1,0.2,0.1,0.2,0.1,0.8l0,0.6h-0.7C29.3,28.4,29.2,28.4,29.2,28.4L29.2,28.4L29.2,28.4z M30.4,32.9c0.7-0.2,1.1-0.6,1.3-1.3
			c0-0.1,0.1-0.4,0.1-0.7l0-0.5h-0.6h-0.6l0,0.4c0,0.5-0.1,0.7-0.2,0.8c-0.2,0.2-0.5,0.2-0.8,0c-0.3-0.2-0.3-0.5-0.3-1.5l0-0.7
			l1.3,0l1.3,0l0-1.1c0-1.2,0-1.4-0.2-1.8c-0.4-0.8-1.4-1.2-2.3-0.9c-0.7,0.2-1,0.7-1.2,1.3C28,27.3,28,27.5,28,29.3
			c0,2.1,0,2.2,0.2,2.7C28.6,32.7,29.5,33.1,30.4,32.9L30.4,32.9L30.4,32.9z M25.3,31.6c0.1-0.1,0.1-0.1,0.2-0.2
			c0.1-0.2,0.1-0.4,0.1-2.2c0-1.9,0-2-0.1-2.1c-0.2-0.3-0.6-0.3-0.9-0.1l-0.1,0.1v2.2v2.2l0.1,0.1C24.8,31.7,25.1,31.8,25.3,31.6
			L25.3,31.6L25.3,31.6z M26.1,32.9c0.2-0.1,0.4-0.3,0.5-0.5c0.2-0.5,0.2-0.5,0.2-3.1c0-2.1,0-2.4-0.1-2.6c-0.2-0.7-0.5-1.1-1.2-1
			c-0.4,0-0.6,0.2-1,0.5c-0.1,0.1-0.3,0.3-0.3,0.3c0,0,0-0.7,0-1.6v-1.6h-0.6h-0.6V28v4.8h0.6h0.6v-0.3c0-0.2,0-0.3,0-0.3
			c0,0,0.2,0.1,0.3,0.3C25.1,32.9,25.5,33,26.1,32.9L26.1,32.9L26.1,32.9z M19.5,32.8c0.2-0.1,0.5-0.3,0.8-0.5
			c0.1-0.1,0.2-0.2,0.2-0.2c0,0,0,0.1,0,0.4v0.4h0.6h0.6v-3.6v-3.6h-0.6h-0.6v2.7v2.7l-0.3,0.3c-0.2,0.2-0.3,0.3-0.4,0.3
			c-0.2,0.1-0.4,0-0.4-0.1c-0.1-0.1-0.1-0.2-0.1-3l0-2.9h-0.6h-0.6v3.1c0,3.4,0,3.4,0.2,3.8C18.6,32.9,19,33,19.5,32.8L19.5,32.8
			L19.5,32.8z M20.1,35.8c-0.8,0-1.7,0-2.1,0c-2.4-0.1-4-0.2-4.3-0.2c-0.5-0.1-1-0.4-1.3-0.8c-0.5-0.6-0.7-1.3-0.9-2.4
			c-0.3-2.6-0.3-5.6,0-8.1c0.1-1.1,0.5-1.9,1-2.4c0.3-0.3,0.6-0.5,1-0.6c0.9-0.2,7.7-0.4,11.9-0.3c2.4,0.1,5,0.2,5.7,0.2
			c0.9,0.1,1.5,0.6,2,1.4c0.3,0.7,0.4,1.2,0.6,2.8c0.1,1.3,0.1,2.1,0.1,3.5c0,1.7-0.1,3.3-0.3,4.1c-0.2,0.9-0.6,1.7-1.1,2.1
			c-0.4,0.3-0.9,0.5-1.5,0.5c-0.2,0-0.5,0-0.6,0c-0.4,0-2.5,0.1-3.7,0.2C24.8,35.8,21.7,35.8,20.1,35.8L20.1,35.8z M17.9,20
			c0,0,0-2.9,0-3.3c0-0.5,0-0.9-0.4-1.9c-0.1-0.3-0.3-1-0.5-1.4c-1-3.3-1-3.1-0.9-3.1c0.7,0,1.5,0,1.5,0c0,0,0.2,0.8,0.5,1.8
			c0.3,1,0.5,1.8,0.5,1.8c0,0,0.2-0.6,0.3-1.3c0.4-1.5,0.6-2.3,0.6-2.3c0,0,0.2,0,0.8,0l0.7,0l0,0.1c0,0.1-0.5,1.7-1,3.3
			c-0.1,0.2-0.2,0.6-0.3,1c-0.1,0.4-0.3,0.8-0.3,1L19.4,16v2c0,1.9,0,2-0.1,2C19.2,20,17.9,20,17.9,20L17.9,20z M26.9,20.1
			c-0.3,0-0.5-0.2-0.7-0.4C26,19.3,26,19.3,26,15.9v-3.2h0.7h0.7l0,2.9c0,3.2,0,3.1,0.2,3.1c0.2,0,0.4-0.1,0.6-0.3l0.2-0.2l0-2.8
			l0-2.8l0.7,0l0.7,0v3.6V20l-0.1,0c-0.1,0-1.2,0-1.2,0c-0.1,0-0.1-0.1-0.1-0.3v-0.3l-0.2,0.2C27.8,19.9,27.3,20.1,26.9,20.1
			L26.9,20.1L26.9,20.1z M23.4,18.7c0.2-0.2,0.2-0.2,0.3-2.2c0-1.6,0-1.9,0-2.1c-0.1-0.3-0.2-0.4-0.4-0.5c-0.3-0.1-0.5,0.1-0.6,0.4
			c-0.1,0.2-0.1,3.8,0,4.1c0.1,0.2,0.2,0.4,0.4,0.4C23.1,18.8,23.3,18.8,23.4,18.7L23.4,18.7L23.4,18.7z M22.8,20.1
			c-0.6-0.1-1.2-0.4-1.5-0.9c-0.3-0.5-0.3-0.8-0.3-3c0-1.7,0-1.8,0.1-2.1c0.2-0.6,0.5-1,1-1.2c0.7-0.3,1.4-0.3,2,0.1
			c0.4,0.3,0.6,0.6,0.8,1.2c0.1,0.2,0.1,0.4,0.1,2.2c0,2.1,0,2.2-0.2,2.7c-0.2,0.4-0.7,0.8-1.2,1C23.4,20.1,23,20.1,22.8,20.1
			L22.8,20.1L22.8,20.1z M22.8,20.1"/>
	</defs>
	<clipPath id="XMLID_16_">
		<use xlink:href="#XMLID_26_"  style="overflow:visible;"/>
	</clipPath>
	<rect id="XMLID_2_" x="6.1" y="5.1" class="st1" width="32.7" height="35.8"/>
</g>
</svg>
